<svg width="160" height="22" viewBox="0 0 160 22" fill="none" xmlns="http://www.w3.org/2000/svg">
<path d="M20.032 0H2.504C1.1268 0 0 1.1 0 2.44444V19.5556C0 20.9 1.1268 22 2.504 22H20.032C21.4092 22 22.536 20.9 22.536 19.5556V2.44444C22.536 1.1 21.4092 0 20.032 0ZM20.032 19.5556H2.504V2.44444H20.032V19.5556ZM4.0064 5.74444H10.2664V7.57778H4.0064V5.74444ZM12.52 15.6444H18.78V17.4778H12.52V15.6444ZM12.52 12.4667H18.78V14.3H12.52V12.4667ZM6.26 18.3333H8.138V15.8889H10.642V14.0556H8.138V11.6111H6.26V14.0556H3.756V15.8889H6.26V18.3333ZM13.8972 9.65556L15.65 7.94444L17.4028 9.65556L18.78 8.43333L17.0272 6.72222L18.78 5.01111L17.4028 3.66667L15.65 5.37778L13.8972 3.66667L12.52 5.01111L14.2728 6.72222L12.52 8.43333L13.8972 9.65556Z" fill="url(#paint0_linear_58_218)"/>
<path d="M40.9915 20.0816C39.6453 20.0816 38.5035 19.8352 37.566 19.3424C36.6285 18.8418 35.8713 18.1808 35.2944 17.3595C34.7255 16.5303 34.3088 15.6151 34.0444 14.6139C33.78 13.6126 33.6478 12.6036 33.6478 11.5867C33.6478 10.5698 33.78 9.56071 34.0444 8.55947C34.3088 7.55822 34.7255 6.64693 35.2944 5.8256C35.8713 4.99644 36.6285 4.33547 37.566 3.84267C38.5035 3.34204 39.6453 3.09173 40.9915 3.09173C42.3376 3.09173 43.4755 3.34204 44.4049 3.84267C45.3424 4.33547 46.0956 4.99644 46.6646 5.8256C47.2415 6.64693 47.6581 7.55822 47.9146 8.55947C48.179 9.56071 48.3112 10.5698 48.3112 11.5867C48.3112 12.6036 48.179 13.6126 47.9146 14.6139C47.6581 15.6151 47.2415 16.5303 46.6646 17.3595C46.0956 18.1808 45.3424 18.8418 44.4049 19.3424C43.4755 19.8352 42.3376 20.0816 40.9915 20.0816ZM40.9915 17.16C41.7447 17.16 42.3817 16.9879 42.9025 16.6437C43.4314 16.2996 43.8561 15.8498 44.1766 15.2944C44.4971 14.739 44.7295 14.1367 44.8737 13.4875C45.0179 12.8304 45.09 12.1968 45.09 11.5867C45.09 10.9296 45.0179 10.2725 44.8737 9.61547C44.7375 8.95058 44.5091 8.34827 44.1886 7.80853C43.8761 7.26098 43.4554 6.82293 42.9266 6.4944C42.4058 6.15804 41.7607 5.98987 40.9915 5.98987C40.2143 5.98987 39.5612 6.16196 39.0324 6.50613C38.5115 6.85031 38.0909 7.304 37.7703 7.8672C37.4578 8.42258 37.2295 9.0288 37.0853 9.68587C36.949 10.3351 36.8809 10.9687 36.8809 11.5867C36.8809 12.2359 36.949 12.8891 37.0853 13.5461C37.2295 14.2032 37.4619 14.8055 37.7824 15.3531C38.1109 15.9006 38.5356 16.3387 39.0564 16.6672C39.5852 16.9957 40.2303 17.16 40.9915 17.16Z" fill="white"/>
<path d="M51.6448 19.8V4.18293L54.6496 2.85707V19.8H51.6448Z" fill="white"/>
<path d="M62.7149 20.0816C61.3447 20.0816 60.283 19.667 59.5298 18.8379C58.7766 18.0009 58.4 16.8197 58.4 15.2944V7.80853H61.4048V14.3792C61.4048 15.3883 61.5811 16.1236 61.9336 16.5851C62.2862 17.0466 62.8431 17.2773 63.6043 17.2773C64.4216 17.2773 65.0226 17.0466 65.4072 16.5851C65.7998 16.1157 65.9961 15.3961 65.9961 14.4261V7.80853H68.9889V19.8H65.9961V18.6736C65.6195 19.1429 65.1548 19.4949 64.6019 19.7296C64.057 19.9643 63.428 20.0816 62.7149 20.0816Z" fill="white"/>
<path d="M72.7695 19.8V7.80853H75.7743V9.0992C75.9987 8.63769 76.3512 8.26222 76.832 7.9728C77.3128 7.67556 77.8176 7.52693 78.3464 7.52693C79.2198 7.52693 79.957 7.82027 80.558 8.40693L80.1373 11.0939C79.8088 10.8279 79.4883 10.6402 79.1758 10.5307C78.8633 10.4212 78.5187 10.3664 78.1421 10.3664C77.6453 10.3664 77.2206 10.4798 76.8681 10.7067C76.5155 10.9335 76.2431 11.262 76.0508 11.6923C75.8665 12.1225 75.7743 12.6388 75.7743 13.2411V19.8H72.7695Z" fill="white"/>
<path d="M86.5471 20.0816C84.9686 20.0816 83.7306 19.5262 82.8332 18.4155C81.9357 17.3047 81.487 15.7637 81.487 13.7925C81.487 12.541 81.6993 11.4459 82.124 10.5072C82.5487 9.56853 83.1416 8.83716 83.9029 8.31307C84.6721 7.78898 85.5655 7.52693 86.5831 7.52693C87.6729 7.52693 88.5663 7.91804 89.2634 8.70027V4.18293L92.2562 2.85707V19.8H89.2634V18.8144C88.6705 19.6592 87.765 20.0816 86.5471 20.0816ZM87.0399 17.2773C87.5527 17.2773 87.9894 17.1913 88.35 17.0192C88.7105 16.8393 89.015 16.5733 89.2634 16.2213V11.3755C89.015 11.0469 88.6905 10.7888 88.2899 10.6011C87.8972 10.4133 87.4806 10.3195 87.0399 10.3195C86.2306 10.3195 85.6056 10.6206 85.1649 11.2229C84.7242 11.8174 84.5038 12.674 84.5038 13.7925C84.5038 14.5278 84.604 15.1575 84.8043 15.6816C85.0046 16.1979 85.2931 16.5929 85.6697 16.8667C86.0463 17.1404 86.503 17.2773 87.0399 17.2773Z" fill="white"/>
<path d="M100.204 20.0816C98.8343 20.0816 97.7726 19.667 97.0194 18.8379C96.2662 18.0009 95.8896 16.8197 95.8896 15.2944V7.80853H98.8944V14.3792C98.8944 15.3883 99.0707 16.1236 99.4232 16.5851C99.7758 17.0466 100.333 17.2773 101.094 17.2773C101.911 17.2773 102.512 17.0466 102.897 16.5851C103.289 16.1157 103.486 15.3961 103.486 14.4261V7.80853H106.478V19.8H103.486V18.6736C103.109 19.1429 102.644 19.4949 102.091 19.7296C101.547 19.9643 100.918 20.0816 100.204 20.0816Z" fill="white"/>
<path d="M111.41 20.0933C110.849 20.0933 110.38 19.9134 110.004 19.5536C109.627 19.186 109.439 18.7362 109.439 18.2043C109.439 17.6802 109.627 17.2304 110.004 16.8549C110.38 16.4716 110.849 16.28 111.41 16.28C111.971 16.28 112.444 16.4716 112.828 16.8549C113.213 17.2304 113.405 17.6802 113.405 18.2043C113.405 18.7362 113.213 19.186 112.828 19.5536C112.444 19.9134 111.971 20.0933 111.41 20.0933Z" fill="white"/>
<path d="M121.113 20.0816C119.983 20.0816 119.006 19.8274 118.18 19.3189C117.355 18.8105 116.718 18.0908 116.269 17.16C115.821 16.2213 115.596 15.1067 115.596 13.816C115.596 12.5253 115.821 11.4107 116.269 10.472C116.726 9.53333 117.371 8.80978 118.204 8.30133C119.038 7.78507 120.019 7.52693 121.149 7.52693C122.423 7.52693 123.481 7.81636 124.322 8.3952C125.171 8.96622 125.784 9.81493 126.161 10.9413L123.313 11.88C123.12 11.3794 122.84 10.9961 122.471 10.7301C122.103 10.4564 121.678 10.3195 121.197 10.3195C120.42 10.3195 119.799 10.6324 119.334 11.2581C118.877 11.8839 118.649 12.7365 118.649 13.816C118.649 14.8798 118.873 15.7246 119.322 16.3504C119.771 16.9762 120.376 17.2891 121.137 17.2891C121.674 17.2891 122.131 17.1404 122.507 16.8432C122.892 16.546 123.176 16.1118 123.361 15.5408L126.197 16.3739C125.837 17.602 125.224 18.5289 124.358 19.1547C123.501 19.7726 122.419 20.0816 121.113 20.0816Z" fill="white"/>
<path d="M134.155 20.0816C132.425 20.0816 131.058 19.5223 130.057 18.4037C129.055 17.2852 128.554 15.7559 128.554 13.816C128.554 12.5332 128.783 11.4224 129.239 10.4837C129.696 9.53724 130.341 8.80978 131.175 8.30133C132.016 7.78507 133.01 7.52693 134.155 7.52693C135.293 7.52693 136.279 7.78115 137.112 8.2896C137.945 8.79804 138.586 9.5216 139.035 10.4603C139.484 11.3989 139.708 12.5136 139.708 13.8043C139.708 15.1028 139.484 16.2213 139.035 17.16C138.594 18.0987 137.957 18.8222 137.124 19.3307C136.291 19.8313 135.301 20.0816 134.155 20.0816ZM134.155 17.2773C134.965 17.2773 135.594 16.9723 136.042 16.3621C136.491 15.752 136.715 14.8994 136.715 13.8043C136.715 12.7092 136.487 11.8565 136.03 11.2464C135.582 10.6284 134.957 10.3195 134.155 10.3195C133.346 10.3195 132.713 10.6284 132.256 11.2464C131.8 11.8644 131.571 12.7209 131.571 13.816C131.571 14.8955 131.8 15.7442 132.256 16.3621C132.713 16.9723 133.346 17.2773 134.155 17.2773Z" fill="white"/>
<path d="M142.584 19.8V7.80853H145.589V8.9232C145.982 8.43822 146.422 8.08622 146.911 7.8672C147.408 7.64036 147.969 7.52693 148.594 7.52693C149.323 7.52693 149.948 7.67164 150.469 7.96107C150.99 8.25049 151.394 8.67289 151.683 9.22827C152.091 8.68071 152.616 8.26222 153.257 7.9728C153.898 7.67556 154.623 7.52693 155.433 7.52693C156.939 7.52693 158.077 7.92196 158.846 8.712C159.615 9.50204 160 10.6754 160 12.232V19.8H157.007V13.2411C157.007 12.2398 156.839 11.5045 156.502 11.0352C156.166 10.558 155.645 10.3195 154.94 10.3195C154.459 10.3195 154.059 10.4251 153.738 10.6363C153.426 10.8475 153.189 11.1682 153.029 11.5984C152.869 12.0208 152.788 12.5566 152.788 13.2059V19.8H149.796V13.2411C149.796 12.232 149.631 11.4928 149.303 11.0235C148.974 10.5541 148.454 10.3195 147.74 10.3195C147.011 10.3195 146.47 10.5502 146.118 11.0117C145.765 11.4732 145.589 12.189 145.589 13.1589V19.8H142.584Z" fill="white"/>
<defs>
<linearGradient id="paint0_linear_58_218" x1="80" y1="0" x2="80" y2="22" gradientUnits="userSpaceOnUse">
<stop stop-color="#F36722"/>
<stop offset="0.9999" stop-color="#FD9C6D"/>
<stop offset="1" stop-color="#F36722" stop-opacity="0"/>
<stop offset="1" stop-color="#FD9C6D"/>
</linearGradient>
</defs>
</svg>
