<svg width="326" height="437" viewBox="0 0 326 437" fill="none" xmlns="http://www.w3.org/2000/svg">
<path opacity="0.1" d="M47.5076 285.556L78.371 184.815L106.188 194.079C126.749 200.927 146.101 205.353 164.244 207.358C182.386 209.363 198.245 206.795 211.82 199.653C225.395 192.512 235.545 178.846 242.268 158.657C248.723 139.276 247.92 122.187 239.86 107.392C231.933 92.1921 218.295 81.37 198.943 74.9253C178.786 68.212 161.18 68.6286 146.127 76.175C131.208 83.3177 120.588 96.3778 114.268 115.355L41.0957 90.9864C48.761 66.6254 61.1963 46.7686 78.4017 31.4161C95.607 16.0636 116.305 6.36008 140.497 2.30553C165.092 -1.61474 191.903 1.25866 220.929 10.9257C247.941 19.9215 270.046 32.8903 287.245 49.8323C304.847 66.9085 316.333 86.8823 321.704 109.754C327.613 132.355 326.063 157.183 317.053 184.236C307.774 212.097 293.86 233.031 275.311 247.039C257.165 261.181 235.93 269.136 211.604 270.903C187.682 272.804 161.745 269.325 133.793 260.464L115.842 308.314L47.5076 285.556ZM36.5923 433.311C22.4819 428.612 12.2697 420.277 5.95567 408.305C0.0447507 396.468 -0.82636 384.291 3.34233 371.774C7.64548 358.853 15.7109 349.428 27.5387 343.499C39.7696 337.704 52.9402 337.156 67.0506 341.855C81.1609 346.554 91.1715 354.823 97.0824 366.659C102.993 378.496 103.797 390.875 99.4941 403.796C95.3254 416.313 87.3271 425.537 75.4994 431.466C63.6716 437.395 50.7026 438.01 36.5923 433.311Z" fill="#F36722"/>
</svg>
